# xmcd
#
# Track frame offsets: 
#        182
#        18615
#        34932
#        52937
#        67272
#        84780
#        101702
#        120437
#        144345
#        163052
#        180387
#        197485
#        223852
#        242165
#        259612
#        283530
#        306092
#
# Disc length: 4412 seconds
#
# Revision: 11
# Processed by: cddbd v1.5.2PL0 Copyright (c) Steve Scherf et al.
# Submitted via: ExactAudioCopy v1.0b4
#
DISCID=ec113a11
DTITLE=Madonna - The Immaculate Collection
DYEAR=1990
DGENRE=Pop
TTITLE0=Holiday
TTITLE1=Lucky Star
TTITLE2=Borderline
TTITLE3=Like A Virgin
TTITLE4=Material Girl
TTITLE5=Crazy For You
TTITLE6=Into The Groove
TTITLE7=Live To Tell
TTITLE8=Papa Don't Preach
TTITLE9=Open Your Heart
TTITLE10=La Isla Bonita
TTITLE11=Like A Prayer
TTITLE12=Express Yourself
TTITLE13=Cherish
TTITLE14=Vogue
TTITLE15=Justify My Love
TTITLE16=Rescue Me
EXTD=YEAR: 1990
EXTT0=
EXTT1=
EXTT2=
EXTT3=
EXTT4=
EXTT5=
EXTT6=
EXTT7=
EXTT8=
EXTT9=
EXTT10=
EXTT11=
EXTT12=
EXTT13=
EXTT14=
EXTT15=
EXTT16=
PLAYORDER=
